REM DIRINDEX 1\2,1\3,1\4,1\5
REM DIRNAME folder01,folder02,folder03,folder04,folder05
TITLE ""
FILE "1Q_j_2297-2310.mp3" MP3
  TRACK 01 AUDIO
    TITLE "3:cjc004_0590"
    INDEX 01 00:00:00
  TRACK 02 AUDIO
    TITLE "0:"
    INDEX 01 00:01:07
  TRACK 03 AUDIO
    TITLE "4:cjc004_0591"
    INDEX 01 00:01:44
  TRACK 04 AUDIO
    TITLE "0:"
    INDEX 01 00:02:67
  TRACK 05 AUDIO
    TITLE "5:cjc004_0592"
    INDEX 01 00:03:21
  TRACK 06 AUDIO
    TITLE "0:"
    INDEX 01 00:10:04
  TRACK 07 AUDIO
    TITLE "3:cjc004_0593"
    INDEX 01 00:10:61
  TRACK 08 AUDIO
    TITLE "0:"
    INDEX 01 00:12:01
  TRACK 09 AUDIO
    TITLE "4:cjc004_0594"
    INDEX 01 00:12:28
  TRACK 10 AUDIO
    TITLE "0:"
    INDEX 01 00:13:53
  TRACK 11 AUDIO
    TITLE "5:cjc004_0595"
    INDEX 01 00:14:00
  TRACK 12 AUDIO
    TITLE "0:"
    INDEX 01 00:16:61
  TRACK 13 AUDIO
    TITLE "3:cjc004_0596"
    INDEX 01 00:17:41
  TRACK 14 AUDIO
    TITLE "0:"
    INDEX 01 00:18:58
  TRACK 15 AUDIO
    TITLE "4:cjc004_0597"
    INDEX 01 00:19:15
  TRACK 16 AUDIO
    TITLE "0:"
    INDEX 01 00:20:20
  TRACK 17 AUDIO
    TITLE "5:cjc004_0598"
    INDEX 01 00:20:51
  TRACK 18 AUDIO
    TITLE "0:"
    INDEX 01 00:27:34
  TRACK 19 AUDIO
    TITLE "3:cjc004_0599"
    INDEX 01 00:28:10
  TRACK 20 AUDIO
    TITLE "0:"
    INDEX 01 00:30:32
  TRACK 21 AUDIO
    TITLE "4:cjc004_0600"
    INDEX 01 00:30:65
  TRACK 22 AUDIO
    TITLE "0:"
    INDEX 01 00:33:40
  TRACK 23 AUDIO
    TITLE "5:cjc004_0601"
    INDEX 01 00:33:60
  TRACK 24 AUDIO
    TITLE "0:"
    INDEX 01 00:40:07
  TRACK 25 AUDIO
    TITLE "3:cjc004_0602"
    INDEX 01 00:40:60
  TRACK 26 AUDIO
    TITLE "0:"
    INDEX 01 00:42:68
  TRACK 27 AUDIO
    TITLE "4:cjc004_0603"
    INDEX 01 00:43:21
  TRACK 28 AUDIO
    TITLE "0:"
    INDEX 01 00:45:16
  TRACK 29 AUDIO
    TITLE "5:cjc004_0604"
    INDEX 01 00:45:39
  TRACK 30 AUDIO
    TITLE "0:"
    INDEX 01 00:52:04
  TRACK 31 AUDIO
    TITLE "3:cjc004_0605"
    INDEX 01 00:52:57
  TRACK 32 AUDIO
    TITLE "0:"
    INDEX 01 00:54:01
  TRACK 33 AUDIO
    TITLE "4:cjc004_0606"
    INDEX 01 00:54:27
  TRACK 34 AUDIO
    TITLE "0:"
    INDEX 01 00:56:10
  TRACK 35 AUDIO
    TITLE "5:cjc004_0607"
    INDEX 01 00:56:29
  TRACK 36 AUDIO
    TITLE "0:"
    INDEX 01 01:00:31
  TRACK 37 AUDIO
    TITLE "3:cjc004_0608"
    INDEX 01 01:01:09
  TRACK 38 AUDIO
    TITLE "0:"
    INDEX 01 01:02:26
  TRACK 39 AUDIO
    TITLE "4:cjc004_0609"
    INDEX 01 01:02:54
  TRACK 40 AUDIO
    TITLE "0:"
    INDEX 01 01:04:05
  TRACK 41 AUDIO
    TITLE "5:cjc004_0610"
    INDEX 01 01:04:31
  TRACK 42 AUDIO
    TITLE "0:"
    INDEX 01 01:09:01
  TRACK 43 AUDIO
    TITLE "3:cjc004_0611"
    INDEX 01 01:09:63
  TRACK 44 AUDIO
    TITLE "0:"
    INDEX 01 01:11:19
  TRACK 45 AUDIO
    TITLE "4:cjc004_0612"
    INDEX 01 01:11:52
  TRACK 46 AUDIO
    TITLE "0:"
    INDEX 01 01:13:34
  TRACK 47 AUDIO
    TITLE "5:cjc004_0613"
    INDEX 01 01:13:57
  TRACK 48 AUDIO
    TITLE "0:"
    INDEX 01 01:17:73
  TRACK 49 AUDIO
    TITLE "3:cjc004_0614"
    INDEX 01 01:18:49
  TRACK 50 AUDIO
    TITLE "0:"
    INDEX 01 01:19:74
  TRACK 51 AUDIO
    TITLE "4:cjc004_0615"
    INDEX 01 01:20:24
  TRACK 52 AUDIO
    TITLE "0:"
    INDEX 01 01:21:61
  TRACK 53 AUDIO
    TITLE "5:cjc004_0616"
    INDEX 01 01:22:17
  TRACK 54 AUDIO
    TITLE "0:"
    INDEX 01 01:26:46
  TRACK 55 AUDIO
    TITLE "3:cjc004_0617"
    INDEX 01 01:27:22
  TRACK 56 AUDIO
    TITLE "0:"
    INDEX 01 01:28:53
  TRACK 57 AUDIO
    TITLE "4:cjc004_0618"
    INDEX 01 01:29:05
  TRACK 58 AUDIO
    TITLE "0:"
    INDEX 01 01:30:28
  TRACK 59 AUDIO
    TITLE "5:cjc004_0619"
    INDEX 01 01:30:54
  TRACK 60 AUDIO
    TITLE "0:"
    INDEX 01 01:35:43
  TRACK 61 AUDIO
    TITLE "3:cjc004_0620"
    INDEX 01 01:36:29
  TRACK 62 AUDIO
    TITLE "0:"
    INDEX 01 01:37:56
  TRACK 63 AUDIO
    TITLE "4:cjc004_0621"
    INDEX 01 01:38:06
  TRACK 64 AUDIO
    TITLE "0:"
    INDEX 01 01:39:49
  TRACK 65 AUDIO
    TITLE "5:cjc004_0622"
    INDEX 01 01:40:01
  TRACK 66 AUDIO
    TITLE "0:"
    INDEX 01 01:46:74
  TRACK 67 AUDIO
    TITLE "3:cjc004_0623"
    INDEX 01 01:47:60
  TRACK 68 AUDIO
    TITLE "0:"
    INDEX 01 01:49:10
  TRACK 69 AUDIO
    TITLE "4:cjc004_0624"
    INDEX 01 01:49:39
  TRACK 70 AUDIO
    TITLE "0:"
    INDEX 01 01:51:07
  TRACK 71 AUDIO
    TITLE "5:cjc004_0625"
    INDEX 01 01:51:34
  TRACK 72 AUDIO
    TITLE "0:"
    INDEX 01 01:55:50
  TRACK 73 AUDIO
    TITLE "3:cjc004_0626"
    INDEX 01 01:56:37
  TRACK 74 AUDIO
    TITLE "0:"
    INDEX 01 01:57:55
  TRACK 75 AUDIO
    TITLE "4:cjc004_0627"
    INDEX 01 01:58:09
  TRACK 76 AUDIO
    TITLE "0:"
    INDEX 01 01:59:59
  TRACK 77 AUDIO
    TITLE "5:cjc004_0628"
    INDEX 01 02:00:08
  TRACK 78 AUDIO
    TITLE "0:"
    INDEX 01 02:04:49
  TRACK 79 AUDIO
    TITLE "3:cjc004_0629"
    INDEX 01 02:05:19
  TRACK 80 AUDIO
    TITLE "0:"
    INDEX 01 02:06:34
  TRACK 81 AUDIO
    TITLE "4:cjc004_0630"
    INDEX 01 02:06:65
  TRACK 82 AUDIO
    TITLE "0:"
    INDEX 01 02:08:05
  TRACK 83 AUDIO
    TITLE "5:cjc004_0631"
    INDEX 01 02:08:31
  TRACK 84 AUDIO
    TITLE "0:"
    INDEX 01 02:16:24
